<svg width="23" height="23" viewBox="0 0 23 23" fill="none" xmlns="http://www.w3.org/2000/svg">
<g id="Group 1161">
<path id="Vector" d="M10.4546 8.88683V9.9323H9.40918V11.5005H10.4546V16.205H12.5455V11.5005H13.936L14.1137 9.9323H12.5455V9.01751C12.5455 8.59412 12.5874 8.36933 13.2407 8.36933H14.1137V6.7959H12.7128C11.0401 6.79594 10.4546 7.58001 10.4546 8.88683Z" fill="white"/>
<path id="Vector_2" d="M11.5 0C5.14872 0 0 5.14872 0 11.5C0 17.8513 5.14872 23 11.5 23C17.8513 23 23 17.8513 23 11.5C23 5.14872 17.8513 0 11.5 0ZM11.5 21.9545C5.7261 21.9545 1.04547 17.2739 1.04547 11.5C1.04547 5.7261 5.7261 1.04547 11.5 1.04547C17.2739 1.04547 21.9545 5.7261 21.9545 11.5C21.9545 17.2739 17.2739 21.9545 11.5 21.9545Z" fill="white"/>
</g>
</svg>
