<svg width="22" height="22" viewBox="0 0 22 22" fill="none" xmlns="http://www.w3.org/2000/svg">
<g id="instagram (3) 1" clip-path="url(#clip0_1_87)">
<path id="Vector" d="M11 0C4.92493 0 0 4.92493 0 11C0 17.0751 4.92493 22 11 22C17.0751 22 22 17.0751 22 11C21.9932 4.9278 17.0722 0.00680341 11 0ZM11 21.2667C5.32992 21.2667 0.733333 16.6701 0.733333 11C0.733333 5.32992 5.32992 0.733333 11 0.733333C16.6701 0.733333 21.2667 5.32992 21.2667 11C21.2602 16.6674 16.6674 21.2602 11 21.2667Z" fill="white"/>
<path id="Vector_2" d="M15.7666 4.40039H6.23324C5.22114 4.40164 4.40116 5.22163 4.3999 6.23372V15.7671C4.40116 16.7792 5.22114 17.5991 6.23324 17.6004H15.7666C16.7787 17.5991 17.5986 16.7792 17.5999 15.7671V6.23372C17.5986 5.22163 16.7787 4.40164 15.7666 4.40039ZM16.8666 15.7671C16.8666 16.3745 16.374 16.8671 15.7666 16.8671H6.23324C5.62576 16.8671 5.13324 16.3745 5.13324 15.7671V6.23372C5.13324 5.62625 5.62576 5.13372 6.23324 5.13372H15.7666C16.374 5.13372 16.8666 5.62625 16.8666 6.23372V15.7671Z" fill="white"/>
<path id="Vector_3" d="M10.9999 7.33301C8.97484 7.33301 7.33325 8.97459 7.33325 10.9997C7.33325 13.0248 8.97484 14.6663 10.9999 14.6663C13.025 14.6663 14.6666 13.0248 14.6666 10.9997C14.6644 8.97549 13.0241 7.33516 10.9999 7.33301ZM10.9999 13.933C9.37982 13.933 8.06659 12.6198 8.06659 10.9997C8.06659 9.37957 9.37982 8.06634 10.9999 8.06634C12.62 8.06634 13.9333 9.37957 13.9333 10.9997C13.9315 12.6189 12.6191 13.9312 10.9999 13.933Z" fill="white"/>
<path id="Vector_4" d="M15.0333 5.86621C14.4259 5.86621 13.9333 6.35874 13.9333 6.96621C13.9333 7.57368 14.4259 8.06621 15.0333 8.06621C15.6408 8.06621 16.1333 7.57368 16.1333 6.96621C16.1333 6.35874 15.6408 5.86621 15.0333 5.86621ZM15.0333 7.33288C14.8309 7.33288 14.6667 7.1687 14.6667 6.96621C14.6667 6.76372 14.8309 6.59954 15.0333 6.59954C15.2358 6.59954 15.4 6.76372 15.4 6.96621C15.4 7.1687 15.2358 7.33288 15.0333 7.33288Z" fill="white"/>
</g>
<defs>
<clipPath id="clip0_1_87">
<rect width="22" height="22" fill="white"/>
</clipPath>
</defs>
</svg>
