<svg width="239" height="88" viewBox="0 0 239 88" fill="none" xmlns="http://www.w3.org/2000/svg">
<g clip-path="url(#clip0_1_507)">
<path d="M43.3921 80.2687L47.2958 88C56.1567 84.8199 62.5249 76.1162 62.5249 65.876H54.2284C54.2284 72.8195 49.6192 78.6447 43.3921 80.2687Z" fill="white"/>
<path d="M39.8741 15.2583C27.3635 15.2583 17.2139 25.7417 17.2139 38.6757C17.2139 45.9693 20.4403 52.4752 25.4916 56.7736L22.8013 61.5874L29.9879 65.876L32.7628 60.9164C35.0015 61.6846 37.3908 62.1028 39.8741 62.1028C52.3847 62.1028 62.5249 51.6194 62.5249 38.6854C62.5249 25.7514 52.3847 15.268 39.8741 15.268V15.2583ZM39.8741 53.5255C31.9444 53.5255 25.5198 46.8835 25.5198 38.6854C25.5198 30.4874 31.9444 23.8453 39.8741 23.8453C47.8038 23.8453 54.2284 30.4874 54.2284 38.6854C54.2284 46.8835 47.8038 53.5255 39.8741 53.5255Z" fill="white"/>
<path d="M90.9137 15.2582C78.4031 15.2582 68.2629 25.7416 68.2629 38.6756C68.2629 51.6096 78.4031 62.093 90.9137 62.093C96.3601 62.093 101.364 60.0994 105.268 56.7833V60.2647H113.565V38.6659C113.565 25.7319 103.424 15.2388 90.9137 15.2388V15.2582ZM90.9137 53.5254C82.984 53.5254 76.5594 46.8834 76.5594 38.6853C76.5594 30.4873 82.984 23.8452 90.9137 23.8452C98.8434 23.8452 105.268 30.4873 105.268 38.6853C105.268 46.8834 98.8434 53.5254 90.9137 53.5254Z" fill="white"/>
<path d="M188.308 38.6757V0H180.012V20.5583C176.099 17.2421 171.104 15.2485 165.658 15.2485C153.147 15.2485 143.007 25.7319 143.007 38.6659C143.007 51.6 153.147 62.0833 165.658 62.0833C171.104 62.0833 176.108 60.0897 180.012 56.7736V60.2551H188.308V38.6562V38.6757ZM165.648 53.5158C157.719 53.5158 151.294 46.8737 151.294 38.6757C151.294 30.4776 157.719 23.8356 165.648 23.8356C173.578 23.8356 180.003 30.4776 180.003 38.6757C180.003 46.8737 173.578 53.5158 165.648 53.5158Z" fill="white"/>
<path d="M127.599 15.2583H119.302V38.5979C119.302 38.5979 119.302 38.6562 119.302 38.6854V60.2843H127.599V38.6368C127.618 30.4582 134.042 23.8356 141.953 23.8356V15.2583C136.507 15.2583 131.503 17.2519 127.599 20.5583V15.2583Z" fill="white"/>
<path d="M230.703 15.2583V36.8572C230.703 37.1586 230.694 37.4698 230.675 37.7713C230.224 45.5414 223.978 51.707 216.349 51.707C208.721 51.707 202.475 45.5512 202.023 37.7713C202.004 37.4698 201.995 37.1683 201.995 36.8572V15.2583H193.698V35.9722H193.689V36.8572C193.689 36.5557 193.698 36.2639 193.717 35.9722H193.727C193.717 36.2639 193.698 36.5654 193.698 36.8572C193.698 44.1605 196.934 50.6761 201.995 54.9745C205.908 58.2907 210.903 60.2843 216.349 60.2843C221.796 60.2843 226.8 58.2907 230.703 54.9745C235.764 50.6761 239 44.1605 239 36.8572V15.2583H230.703Z" fill="white"/>
<path d="M11.062 0H2.7655V8.5773H11.062V0Z" fill="white"/>
<path d="M2.76551 15.2583H0V23.8356H2.76551V60.2745H11.062V15.2583H8.29652H2.76551Z" fill="white"/>
</g>
<defs>
<clipPath id="clip0_1_507">
<rect width="239" height="88" fill="white"/>
</clipPath>
</defs>
</svg>
